<svg width="208" height="208" viewBox="0 0 208 208" fill="none" xmlns="http://www.w3.org/2000/svg">
<g filter="url(#filter0_i_84_124)">
<path d="M53.3594 143.125L57.875 127.25H60.0625L58.7969 133.422L53.9375 150H51.7656L53.3594 143.125ZM48.6875 127.25L52.2812 142.812L53.3594 150H51.2031L45.6875 127.25H48.6875ZM65.9062 142.797L69.4219 127.25H72.4375L66.9375 150H64.7812L65.9062 142.797ZM60.3906 127.25L64.7812 143.125L66.375 150H64.2031L59.5156 133.422L58.2344 127.25H60.3906ZM83.5156 129.266L75.9844 150H72.9062L81.5781 127.25H83.5625L83.5156 129.266ZM89.8281 150L82.2812 129.266L82.2344 127.25H84.2188L92.9219 150H89.8281ZM89.4375 141.578V144.047H76.6562V141.578H89.4375ZM109.766 147.547V150H98.3906V147.547H109.766ZM98.9844 127.25V150H95.9688V127.25H98.9844ZM117.312 127.25V150H114.344V127.25H117.312ZM124.625 127.25V129.719H107.047V127.25H124.625ZM142.453 147.547V150H130.406V147.547H142.453ZM131.016 127.25V150H128V127.25H131.016ZM140.859 137.031V139.484H130.406V137.031H140.859ZM142.297 127.25V129.719H130.406V127.25H142.297ZM146.188 127.25H153.719C155.427 127.25 156.87 127.51 158.047 128.031C159.234 128.552 160.135 129.323 160.75 130.344C161.375 131.354 161.688 132.599 161.688 134.078C161.688 135.12 161.474 136.073 161.047 136.938C160.63 137.792 160.026 138.521 159.234 139.125C158.453 139.719 157.516 140.161 156.422 140.453L155.578 140.781H148.5L148.469 138.328H153.812C154.896 138.328 155.797 138.141 156.516 137.766C157.234 137.38 157.776 136.865 158.141 136.219C158.505 135.573 158.688 134.859 158.688 134.078C158.688 133.203 158.516 132.438 158.172 131.781C157.828 131.125 157.286 130.62 156.547 130.266C155.818 129.901 154.875 129.719 153.719 129.719H149.203V150H146.188V127.25ZM159.484 150L153.953 139.688L157.094 139.672L162.703 149.812V150H159.484Z" fill="black"/>
</g>
<path d="M53.3594 143.125L52.8785 142.988L52.8751 143L52.8723 143.012L53.3594 143.125ZM57.875 127.25V126.75H57.4974L57.3941 127.113L57.875 127.25ZM60.0625 127.25L60.5523 127.35L60.6754 126.75H60.0625V127.25ZM58.7969 133.422L59.2767 133.563L59.2825 133.543L59.2867 133.522L58.7969 133.422ZM53.9375 150V150.5H54.312L54.4173 150.141L53.9375 150ZM51.7656 150L51.2785 149.887L51.1365 150.5H51.7656V150ZM48.6875 127.25L49.1747 127.137L49.0852 126.75H48.6875V127.25ZM52.2812 142.812L52.7757 142.738L52.7728 142.719L52.7684 142.7L52.2812 142.812ZM53.3594 150V150.5H53.94L53.8538 149.926L53.3594 150ZM51.2031 150L50.7172 150.118L50.8099 150.5H51.2031V150ZM45.6875 127.25V126.75H45.0518L45.2016 127.368L45.6875 127.25ZM65.9062 142.797L65.4186 142.687L65.4148 142.703L65.4122 142.72L65.9062 142.797ZM69.4219 127.25V126.75H69.0223L68.9342 127.14L69.4219 127.25ZM72.4375 127.25L72.9235 127.367L73.0728 126.75H72.4375V127.25ZM66.9375 150V150.5H67.331L67.4235 150.117L66.9375 150ZM64.7812 150L64.2872 149.923L64.1971 150.5H64.7812V150ZM60.3906 127.25L60.8725 127.117L60.7711 126.75H60.3906V127.25ZM64.7812 143.125L65.2683 143.012L65.266 143.002L65.2632 142.992L64.7812 143.125ZM66.375 150V150.5H67.0042L66.8621 149.887L66.375 150ZM64.2031 150L63.722 150.136L63.8249 150.5H64.2031V150ZM59.5156 133.422L59.0261 133.524L59.0297 133.541L59.0345 133.558L59.5156 133.422ZM58.2344 127.25V126.75H57.6199L57.7448 127.352L58.2344 127.25ZM53.3594 143.125L53.8403 143.262L58.3559 127.387L57.875 127.25L57.3941 127.113L52.8785 142.988L53.3594 143.125ZM57.875 127.25V127.75H60.0625V127.25V126.75H57.875V127.25ZM60.0625 127.25L59.5727 127.15L58.3071 133.321L58.7969 133.422L59.2867 133.522L60.5523 127.35L60.0625 127.25ZM58.7969 133.422L58.3171 133.281L53.4577 149.859L53.9375 150L54.4173 150.141L59.2767 133.563L58.7969 133.422ZM53.9375 150V149.5H51.7656V150V150.5H53.9375V150ZM51.7656 150L52.2527 150.113L53.8465 143.238L53.3594 143.125L52.8723 143.012L51.2785 149.887L51.7656 150ZM48.6875 127.25L48.2003 127.363L51.7941 142.925L52.2812 142.812L52.7684 142.7L49.1747 127.137L48.6875 127.25ZM52.2812 142.812L51.7868 142.887L52.8649 150.074L53.3594 150L53.8538 149.926L52.7757 142.738L52.2812 142.812ZM53.3594 150V149.5H51.2031V150V150.5H53.3594V150ZM51.2031 150L51.689 149.882L46.1734 127.132L45.6875 127.25L45.2016 127.368L50.7172 150.118L51.2031 150ZM45.6875 127.25V127.75H48.6875V127.25V126.75H45.6875V127.25ZM65.9062 142.797L66.3939 142.907L69.9096 127.36L69.4219 127.25L68.9342 127.14L65.4186 142.687L65.9062 142.797ZM69.4219 127.25V127.75H72.4375V127.25V126.75H69.4219V127.25ZM72.4375 127.25L71.9515 127.133L66.4515 149.883L66.9375 150L67.4235 150.117L72.9235 127.367L72.4375 127.25ZM66.9375 150V149.5H64.7812V150V150.5H66.9375V150ZM64.7812 150L65.2753 150.077L66.4003 142.874L65.9062 142.797L65.4122 142.72L64.2872 149.923L64.7812 150ZM60.3906 127.25L59.9087 127.383L64.2993 143.258L64.7812 143.125L65.2632 142.992L60.8725 127.117L60.3906 127.25ZM64.7812 143.125L64.2942 143.238L65.8879 150.113L66.375 150L66.8621 149.887L65.2683 143.012L64.7812 143.125ZM66.375 150V149.5H64.2031V150V150.5H66.375V150ZM64.2031 150L64.6843 149.864L59.9968 133.286L59.5156 133.422L59.0345 133.558L63.722 150.136L64.2031 150ZM59.5156 133.422L60.0052 133.32L58.7239 127.148L58.2344 127.25L57.7448 127.352L59.0261 133.524L59.5156 133.422ZM58.2344 127.25V127.75H60.3906V127.25V126.75H58.2344V127.25ZM83.5156 129.266L83.9856 129.436L84.0136 129.359L84.0155 129.277L83.5156 129.266ZM75.9844 150V150.5H76.3347L76.4543 150.171L75.9844 150ZM72.9062 150L72.439 149.822L72.1806 150.5H72.9062V150ZM81.5781 127.25V126.75H81.2336L81.1109 127.072L81.5781 127.25ZM83.5625 127.25L84.0624 127.262L84.0743 126.75H83.5625V127.25ZM89.8281 150L89.3583 150.171L89.478 150.5H89.8281V150ZM82.2812 129.266L81.7814 129.277L81.7833 129.359L81.8114 129.437L82.2812 129.266ZM82.2344 127.25V126.75H81.7226L81.7345 127.262L82.2344 127.25ZM84.2188 127.25L84.6857 127.071L84.5628 126.75H84.2188V127.25ZM92.9219 150V150.5H93.6485L93.3889 149.821L92.9219 150ZM89.4375 141.578H89.9375V141.078H89.4375V141.578ZM89.4375 144.047V144.547H89.9375V144.047H89.4375ZM76.6562 144.047H76.1562V144.547H76.6562V144.047ZM76.6562 141.578V141.078H76.1562V141.578H76.6562ZM83.5156 129.266L83.0457 129.095L75.5144 149.829L75.9844 150L76.4543 150.171L83.9856 129.436L83.5156 129.266ZM75.9844 150V149.5H72.9062V150V150.5H75.9844V150ZM72.9062 150L73.3735 150.178L82.0453 127.428L81.5781 127.25L81.1109 127.072L72.439 149.822L72.9062 150ZM81.5781 127.25V127.75H83.5625V127.25V126.75H81.5781V127.25ZM83.5625 127.25L83.0626 127.238L83.0158 129.254L83.5156 129.266L84.0155 129.277L84.0624 127.262L83.5625 127.25ZM89.8281 150L90.298 149.829L82.7511 129.095L82.2812 129.266L81.8114 129.437L89.3583 150.171L89.8281 150ZM82.2812 129.266L82.7811 129.254L82.7342 127.238L82.2344 127.25L81.7345 127.262L81.7814 129.277L82.2812 129.266ZM82.2344 127.25V127.75H84.2188V127.25V126.75H82.2344V127.25ZM84.2188 127.25L83.7518 127.429L92.4549 150.179L92.9219 150L93.3889 149.821L84.6857 127.071L84.2188 127.25ZM92.9219 150V149.5H89.8281V150V150.5H92.9219V150ZM89.4375 141.578H88.9375V144.047H89.4375H89.9375V141.578H89.4375ZM89.4375 144.047V143.547H76.6562V144.047V144.547H89.4375V144.047ZM76.6562 144.047H77.1562V141.578H76.6562H76.1562V144.047H76.6562ZM76.6562 141.578V142.078H89.4375V141.578V141.078H76.6562V141.578ZM109.766 147.547H110.266V147.047H109.766V147.547ZM109.766 150V150.5H110.266V150H109.766ZM98.3906 150H97.8906V150.5H98.3906V150ZM98.3906 147.547V147.047H97.8906V147.547H98.3906ZM98.9844 127.25H99.4844V126.75H98.9844V127.25ZM98.9844 150V150.5H99.4844V150H98.9844ZM95.9688 150H95.4688V150.5H95.9688V150ZM95.9688 127.25V126.75H95.4688V127.25H95.9688ZM109.766 147.547H109.266V150H109.766H110.266V147.547H109.766ZM109.766 150V149.5H98.3906V150V150.5H109.766V150ZM98.3906 150H98.8906V147.547H98.3906H97.8906V150H98.3906ZM98.3906 147.547V148.047H109.766V147.547V147.047H98.3906V147.547ZM98.9844 127.25H98.4844V150H98.9844H99.4844V127.25H98.9844ZM98.9844 150V149.5H95.9688V150V150.5H98.9844V150ZM95.9688 150H96.4688V127.25H95.9688H95.4688V150H95.9688ZM95.9688 127.25V127.75H98.9844V127.25V126.75H95.9688V127.25ZM117.312 127.25H117.812V126.75H117.312V127.25ZM117.312 150V150.5H117.812V150H117.312ZM114.344 150H113.844V150.5H114.344V150ZM114.344 127.25V126.75H113.844V127.25H114.344ZM124.625 127.25H125.125V126.75H124.625V127.25ZM124.625 129.719V130.219H125.125V129.719H124.625ZM107.047 129.719H106.547V130.219H107.047V129.719ZM107.047 127.25V126.75H106.547V127.25H107.047ZM117.312 127.25H116.812V150H117.312H117.812V127.25H117.312ZM117.312 150V149.5H114.344V150V150.5H117.312V150ZM114.344 150H114.844V127.25H114.344H113.844V150H114.344ZM114.344 127.25V127.75H117.312V127.25V126.75H114.344V127.25ZM124.625 127.25H124.125V129.719H124.625H125.125V127.25H124.625ZM124.625 129.719V129.219H107.047V129.719V130.219H124.625V129.719ZM107.047 129.719H107.547V127.25H107.047H106.547V129.719H107.047ZM107.047 127.25V127.75H124.625V127.25V126.75H107.047V127.25ZM142.453 147.547H142.953V147.047H142.453V147.547ZM142.453 150V150.5H142.953V150H142.453ZM130.406 150H129.906V150.5H130.406V150ZM130.406 147.547V147.047H129.906V147.547H130.406ZM131.016 127.25H131.516V126.75H131.016V127.25ZM131.016 150V150.5H131.516V150H131.016ZM128 150H127.5V150.5H128V150ZM128 127.25V126.75H127.5V127.25H128ZM140.859 137.031H141.359V136.531H140.859V137.031ZM140.859 139.484V139.984H141.359V139.484H140.859ZM130.406 139.484H129.906V139.984H130.406V139.484ZM130.406 137.031V136.531H129.906V137.031H130.406ZM142.297 127.25H142.797V126.75H142.297V127.25ZM142.297 129.719V130.219H142.797V129.719H142.297ZM130.406 129.719H129.906V130.219H130.406V129.719ZM130.406 127.25V126.75H129.906V127.25H130.406ZM142.453 147.547H141.953V150H142.453H142.953V147.547H142.453ZM142.453 150V149.5H130.406V150V150.5H142.453V150ZM130.406 150H130.906V147.547H130.406H129.906V150H130.406ZM130.406 147.547V148.047H142.453V147.547V147.047H130.406V147.547ZM131.016 127.25H130.516V150H131.016H131.516V127.25H131.016ZM131.016 150V149.5H128V150V150.5H131.016V150ZM128 150H128.5V127.25H128H127.5V150H128ZM128 127.25V127.75H131.016V127.25V126.75H128V127.25ZM140.859 137.031H140.359V139.484H140.859H141.359V137.031H140.859ZM140.859 139.484V138.984H130.406V139.484V139.984H140.859V139.484ZM130.406 139.484H130.906V137.031H130.406H129.906V139.484H130.406ZM130.406 137.031V137.531H140.859V137.031V136.531H130.406V137.031ZM142.297 127.25H141.797V129.719H142.297H142.797V127.25H142.297ZM142.297 129.719V129.219H130.406V129.719V130.219H142.297V129.719ZM130.406 129.719H130.906V127.25H130.406H129.906V129.719H130.406ZM130.406 127.25V127.75H142.297V127.25V126.75H130.406V127.25ZM146.188 127.25V126.75H145.688V127.25H146.188ZM158.047 128.031L157.845 128.488L157.846 128.489L158.047 128.031ZM160.75 130.344L160.322 130.602L160.325 130.607L160.75 130.344ZM161.047 136.938L160.599 136.716L160.597 136.718L161.047 136.938ZM159.234 139.125L159.537 139.523L159.538 139.522L159.234 139.125ZM156.422 140.453L156.293 139.97L156.266 139.977L156.241 139.987L156.422 140.453ZM155.578 140.781V141.281H155.672L155.759 141.247L155.578 140.781ZM148.5 140.781L148 140.788L148.006 141.281H148.5V140.781ZM148.469 138.328V137.828H147.962L147.969 138.334L148.469 138.328ZM156.516 137.766L156.747 138.209L156.752 138.206L156.516 137.766ZM156.547 130.266L156.323 130.713L156.331 130.717L156.547 130.266ZM149.203 129.719V129.219H148.703V129.719H149.203ZM149.203 150V150.5H149.703V150H149.203ZM146.188 150H145.688V150.5H146.188V150ZM159.484 150L159.044 150.236L159.185 150.5H159.484V150ZM153.953 139.688L153.951 139.188L153.12 139.192L153.513 139.924L153.953 139.688ZM157.094 139.672L157.531 139.43L157.388 139.17L157.091 139.172L157.094 139.672ZM162.703 149.812H163.203V149.683L163.141 149.57L162.703 149.812ZM162.703 150V150.5H163.203V150H162.703ZM146.188 127.25V127.75H153.719V127.25V126.75H146.188V127.25ZM153.719 127.25V127.75C155.379 127.75 156.748 128.003 157.845 128.488L158.047 128.031L158.249 127.574C156.991 127.017 155.475 126.75 153.719 126.75V127.25ZM158.047 128.031L157.846 128.489C158.948 128.972 159.765 129.677 160.322 130.602L160.75 130.344L161.178 130.086C160.506 128.969 159.521 128.132 158.248 127.573L158.047 128.031ZM160.75 130.344L160.325 130.607C160.89 131.521 161.188 132.669 161.188 134.078H161.688H162.188C162.188 132.529 161.86 131.187 161.175 130.081L160.75 130.344ZM161.688 134.078H161.188C161.188 135.049 160.989 135.926 160.599 136.716L161.047 136.938L161.495 137.159C161.959 136.22 162.188 135.19 162.188 134.078H161.688ZM161.047 136.938L160.597 136.718C160.217 137.499 159.664 138.168 158.931 138.728L159.234 139.125L159.538 139.522C160.388 138.873 161.044 138.084 161.496 137.157L161.047 136.938ZM159.234 139.125L158.932 138.727C158.21 139.276 157.333 139.693 156.293 139.97L156.422 140.453L156.551 140.936C157.698 140.63 158.697 140.162 159.537 139.523L159.234 139.125ZM156.422 140.453L156.241 139.987L155.397 140.315L155.578 140.781L155.759 141.247L156.603 140.919L156.422 140.453ZM155.578 140.781V140.281H148.5V140.781V141.281H155.578V140.781ZM148.5 140.781L149 140.775L148.969 138.322L148.469 138.328L147.969 138.334L148 140.788L148.5 140.781ZM148.469 138.328V138.828H153.812V138.328V137.828H148.469V138.328ZM153.812 138.328V138.828C154.95 138.828 155.937 138.632 156.747 138.209L156.516 137.766L156.284 137.322C155.657 137.65 154.841 137.828 153.812 137.828V138.328ZM156.516 137.766L156.752 138.206C157.546 137.781 158.16 137.201 158.576 136.465L158.141 136.219L157.705 135.973C157.392 136.528 156.923 136.98 156.279 137.325L156.516 137.766ZM158.141 136.219L158.576 136.465C158.985 135.74 159.188 134.941 159.188 134.078H158.688H158.188C158.188 134.778 158.025 135.406 157.705 135.973L158.141 136.219ZM158.688 134.078H159.188C159.188 133.137 159.002 132.289 158.615 131.549L158.172 131.781L157.729 132.013C158.029 132.586 158.188 133.269 158.188 134.078H158.688ZM158.172 131.781L158.615 131.549C158.216 130.787 157.589 130.21 156.763 129.815L156.547 130.266L156.331 130.717C156.984 131.029 157.441 131.463 157.729 132.013L158.172 131.781ZM156.547 130.266L156.77 129.818C155.949 129.408 154.922 129.219 153.719 129.219V129.719V130.219C154.828 130.219 155.686 130.394 156.323 130.713L156.547 130.266ZM153.719 129.719V129.219H149.203V129.719V130.219H153.719V129.719ZM149.203 129.719H148.703V150H149.203H149.703V129.719H149.203ZM149.203 150V149.5H146.188V150V150.5H149.203V150ZM146.188 150H146.688V127.25H146.188H145.688V150H146.188ZM159.484 150L159.925 149.764L154.394 139.451L153.953 139.688L153.513 139.924L159.044 150.236L159.484 150ZM153.953 139.688L153.956 140.187L157.096 140.172L157.094 139.672L157.091 139.172L153.951 139.188L153.953 139.688ZM157.094 139.672L156.656 139.914L162.266 150.055L162.703 149.812L163.141 149.57L157.531 139.43L157.094 139.672ZM162.703 149.812H162.203V150H162.703H163.203V149.812H162.703ZM162.703 150V149.5H159.484V150V150.5H162.703V150Z" fill="black"/>
<g filter="url(#filter1_d_84_124)">
<mask id="path-3-inside-1_84_124" fill="white">
<path d="M104 0C90.8678 -1.566e-07 77.8642 2.58658 65.7317 7.61205C53.5991 12.6375 42.5752 20.0035 33.2893 29.2893C24.0035 38.5752 16.6375 49.5991 11.612 61.7317C6.58658 73.8642 4 86.8678 4 100C4 113.132 6.58658 126.136 11.612 138.268C16.6375 150.401 24.0035 161.425 33.2893 170.711C42.5752 179.997 53.5991 187.362 65.7317 192.388C77.8642 197.413 90.8678 200 104 200L104 188.045C92.4377 188.045 80.9886 185.768 70.3065 181.343C59.6243 176.919 49.9182 170.433 41.7424 162.258C33.5667 154.082 27.0813 144.376 22.6566 133.694C18.2319 123.011 15.9545 111.562 15.9545 100C15.9545 88.4377 18.2319 76.9886 22.6566 66.3064C27.0813 55.6243 33.5667 45.9182 41.7424 37.7424C49.9182 29.5667 59.6243 23.0813 70.3064 18.6566C80.9886 14.2319 92.4377 11.9545 104 11.9545L104 0Z"/>
</mask>
<path d="M104 0C90.8678 -1.566e-07 77.8642 2.58658 65.7317 7.61205C53.5991 12.6375 42.5752 20.0035 33.2893 29.2893C24.0035 38.5752 16.6375 49.5991 11.612 61.7317C6.58658 73.8642 4 86.8678 4 100C4 113.132 6.58658 126.136 11.612 138.268C16.6375 150.401 24.0035 161.425 33.2893 170.711C42.5752 179.997 53.5991 187.362 65.7317 192.388C77.8642 197.413 90.8678 200 104 200L104 188.045C92.4377 188.045 80.9886 185.768 70.3065 181.343C59.6243 176.919 49.9182 170.433 41.7424 162.258C33.5667 154.082 27.0813 144.376 22.6566 133.694C18.2319 123.011 15.9545 111.562 15.9545 100C15.9545 88.4377 18.2319 76.9886 22.6566 66.3064C27.0813 55.6243 33.5667 45.9182 41.7424 37.7424C49.9182 29.5667 59.6243 23.0813 70.3064 18.6566C80.9886 14.2319 92.4377 11.9545 104 11.9545L104 0Z" fill="#187660"/>
<path d="M104 0C90.8678 -1.566e-07 77.8642 2.58658 65.7317 7.61205C53.5991 12.6375 42.5752 20.0035 33.2893 29.2893C24.0035 38.5752 16.6375 49.5991 11.612 61.7317C6.58658 73.8642 4 86.8678 4 100C4 113.132 6.58658 126.136 11.612 138.268C16.6375 150.401 24.0035 161.425 33.2893 170.711C42.5752 179.997 53.5991 187.362 65.7317 192.388C77.8642 197.413 90.8678 200 104 200L104 188.045C92.4377 188.045 80.9886 185.768 70.3065 181.343C59.6243 176.919 49.9182 170.433 41.7424 162.258C33.5667 154.082 27.0813 144.376 22.6566 133.694C18.2319 123.011 15.9545 111.562 15.9545 100C15.9545 88.4377 18.2319 76.9886 22.6566 66.3064C27.0813 55.6243 33.5667 45.9182 41.7424 37.7424C49.9182 29.5667 59.6243 23.0813 70.3064 18.6566C80.9886 14.2319 92.4377 11.9545 104 11.9545L104 0Z" stroke="black" stroke-width="2" mask="url(#path-3-inside-1_84_124)"/>
</g>
<g filter="url(#filter2_d_84_124)">
<mask id="path-4-inside-2_84_124" fill="white">
<path d="M104 0C117.132 1.566e-07 130.136 2.58658 142.268 7.61205C154.401 12.6375 165.425 20.0035 174.711 29.2893C183.997 38.5752 191.362 49.5991 196.388 61.7317C201.413 73.8642 204 86.8678 204 100C204 113.132 201.413 126.136 196.388 138.268C191.362 150.401 183.997 161.425 174.711 170.711C165.425 179.997 154.401 187.362 142.268 192.388C130.136 197.413 117.132 200 104 200L104 188C115.556 188 126.999 185.724 137.676 181.301C148.353 176.879 158.054 170.397 166.225 162.225C174.397 154.054 180.879 144.353 185.301 133.676C189.724 123 192 111.556 192 100C192 88.4437 189.724 77.0005 185.301 66.3239C180.879 55.6472 174.397 45.9462 166.225 37.7746C158.054 29.6031 148.353 23.121 137.676 18.6986C126.999 14.2762 115.556 12 104 12L104 0Z"/>
</mask>
<path d="M104 0C117.132 1.566e-07 130.136 2.58658 142.268 7.61205C154.401 12.6375 165.425 20.0035 174.711 29.2893C183.997 38.5752 191.362 49.5991 196.388 61.7317C201.413 73.8642 204 86.8678 204 100C204 113.132 201.413 126.136 196.388 138.268C191.362 150.401 183.997 161.425 174.711 170.711C165.425 179.997 154.401 187.362 142.268 192.388C130.136 197.413 117.132 200 104 200L104 188C115.556 188 126.999 185.724 137.676 181.301C148.353 176.879 158.054 170.397 166.225 162.225C174.397 154.054 180.879 144.353 185.301 133.676C189.724 123 192 111.556 192 100C192 88.4437 189.724 77.0005 185.301 66.3239C180.879 55.6472 174.397 45.9462 166.225 37.7746C158.054 29.6031 148.353 23.121 137.676 18.6986C126.999 14.2762 115.556 12 104 12L104 0Z" fill="#4682B4"/>
<path d="M104 0C117.132 1.566e-07 130.136 2.58658 142.268 7.61205C154.401 12.6375 165.425 20.0035 174.711 29.2893C183.997 38.5752 191.362 49.5991 196.388 61.7317C201.413 73.8642 204 86.8678 204 100C204 113.132 201.413 126.136 196.388 138.268C191.362 150.401 183.997 161.425 174.711 170.711C165.425 179.997 154.401 187.362 142.268 192.388C130.136 197.413 117.132 200 104 200L104 188C115.556 188 126.999 185.724 137.676 181.301C148.353 176.879 158.054 170.397 166.225 162.225C174.397 154.054 180.879 144.353 185.301 133.676C189.724 123 192 111.556 192 100C192 88.4437 189.724 77.0005 185.301 66.3239C180.879 55.6472 174.397 45.9462 166.225 37.7746C158.054 29.6031 148.353 23.121 137.676 18.6986C126.999 14.2762 115.556 12 104 12L104 0Z" stroke="black" stroke-width="2" mask="url(#path-4-inside-2_84_124)"/>
</g>
<rect x="84" y="65" width="13" height="42" fill="#4682B4"/>
<rect x="138" y="57" width="13" height="35" fill="#4682B4"/>
<rect x="57" y="49" width="13" height="43" fill="#187660"/>
<rect x="111" y="44" width="13" height="40" fill="#187660"/>
<line x1="63.5" y1="92" x2="63.5" y2="100" stroke="black"/>
<line x1="63.5" y1="92" x2="63.5" y2="102" stroke="black"/>
<line x1="90.5" y1="107" x2="90.5" y2="117" stroke="black"/>
<line x1="90.5" y1="55" x2="90.5" y2="65" stroke="black"/>
<line x1="117.5" y1="34" x2="117.5" y2="44" stroke="black"/>
<line x1="117.5" y1="84" x2="117.5" y2="94" stroke="black"/>
<line x1="144.5" y1="92" x2="144.5" y2="102" stroke="black"/>
<line x1="144.5" y1="47" x2="144.5" y2="57" stroke="black"/>
<line x1="63.5" y1="39" x2="63.5" y2="49" stroke="black"/>
<line x1="63.5" y1="92" x2="63.5" y2="102" stroke="black"/>
<defs>
<filter id="filter0_i_84_124" x="45.0518" y="126.75" width="118.151" height="27.75" filterUnits="userSpaceOnUse" color-interpolation-filters="sRGB">
<feFlood flood-opacity="0" result="BackgroundImageFix"/>
<feBlend mode="normal" in="SourceGraphic" in2="BackgroundImageFix" result="shape"/>
<feColorMatrix in="SourceAlpha" type="matrix" values="0 0 0 0 0 0 0 0 0 0 0 0 0 0 0 0 0 0 127 0" result="hardAlpha"/>
<feOffset dy="4"/>
<feGaussianBlur stdDeviation="2"/>
<feComposite in2="hardAlpha" operator="arithmetic" k2="-1" k3="1"/>
<feColorMatrix type="matrix" values="0 0 0 0 0 0 0 0 0 0 0 0 0 0 0 0 0 0 0.25 0"/>
<feBlend mode="normal" in2="shape" result="effect1_innerShadow_84_124"/>
</filter>
<filter id="filter1_d_84_124" x="0" y="0" width="108" height="208" filterUnits="userSpaceOnUse" color-interpolation-filters="sRGB">
<feFlood flood-opacity="0" result="BackgroundImageFix"/>
<feColorMatrix in="SourceAlpha" type="matrix" values="0 0 0 0 0 0 0 0 0 0 0 0 0 0 0 0 0 0 127 0" result="hardAlpha"/>
<feOffset dy="4"/>
<feGaussianBlur stdDeviation="2"/>
<feComposite in2="hardAlpha" operator="out"/>
<feColorMatrix type="matrix" values="0 0 0 0 0 0 0 0 0 0 0 0 0 0 0 0 0 0 0.25 0"/>
<feBlend mode="normal" in2="BackgroundImageFix" result="effect1_dropShadow_84_124"/>
<feBlend mode="normal" in="SourceGraphic" in2="effect1_dropShadow_84_124" result="shape"/>
</filter>
<filter id="filter2_d_84_124" x="100" y="0" width="108" height="208" filterUnits="userSpaceOnUse" color-interpolation-filters="sRGB">
<feFlood flood-opacity="0" result="BackgroundImageFix"/>
<feColorMatrix in="SourceAlpha" type="matrix" values="0 0 0 0 0 0 0 0 0 0 0 0 0 0 0 0 0 0 127 0" result="hardAlpha"/>
<feOffset dy="4"/>
<feGaussianBlur stdDeviation="2"/>
<feComposite in2="hardAlpha" operator="out"/>
<feColorMatrix type="matrix" values="0 0 0 0 0 0 0 0 0 0 0 0 0 0 0 0 0 0 0.25 0"/>
<feBlend mode="normal" in2="BackgroundImageFix" result="effect1_dropShadow_84_124"/>
<feBlend mode="normal" in="SourceGraphic" in2="effect1_dropShadow_84_124" result="shape"/>
</filter>
</defs>
</svg>
