<svg width="125" height="120" viewBox="0 0 125 120" fill="none" xmlns="http://www.w3.org/2000/svg">
<g filter="url(#filter0_i_95_198)">
<path d="M11.8594 100.125L16.375 84.25H18.5625L17.2969 90.4219L12.4375 107H10.2656L11.8594 100.125ZM7.1875 84.25L10.7812 99.8125L11.8594 107H9.70312L4.1875 84.25H7.1875ZM24.4062 99.7969L27.9219 84.25H30.9375L25.4375 107H23.2812L24.4062 99.7969ZM18.8906 84.25L23.2812 100.125L24.875 107H22.7031L18.0156 90.4219L16.7344 84.25H18.8906ZM42.0156 86.2656L34.4844 107H31.4062L40.0781 84.25H42.0625L42.0156 86.2656ZM48.3281 107L40.7812 86.2656L40.7344 84.25H42.7188L51.4219 107H48.3281ZM47.9375 98.5781V101.047H35.1562V98.5781H47.9375ZM68.2656 104.547V107H56.8906V104.547H68.2656ZM57.4844 84.25V107H54.4688V84.25H57.4844ZM75.8125 84.25V107H72.8438V84.25H75.8125ZM83.125 84.25V86.7188H65.5469V84.25H83.125ZM100.953 104.547V107H88.9062V104.547H100.953ZM89.5156 84.25V107H86.5V84.25H89.5156ZM99.3594 94.0312V96.4844H88.9062V94.0312H99.3594ZM100.797 84.25V86.7188H88.9062V84.25H100.797ZM104.688 84.25H112.219C113.927 84.25 115.37 84.5104 116.547 85.0312C117.734 85.5521 118.635 86.3229 119.25 87.3438C119.875 88.3542 120.188 89.599 120.188 91.0781C120.188 92.1198 119.974 93.0729 119.547 93.9375C119.13 94.7917 118.526 95.5208 117.734 96.125C116.953 96.7188 116.016 97.1615 114.922 97.4531L114.078 97.7812H107L106.969 95.3281H112.312C113.396 95.3281 114.297 95.1406 115.016 94.7656C115.734 94.3802 116.276 93.8646 116.641 93.2188C117.005 92.5729 117.188 91.8594 117.188 91.0781C117.188 90.2031 117.016 89.4375 116.672 88.7812C116.328 88.125 115.786 87.6198 115.047 87.2656C114.318 86.901 113.375 86.7188 112.219 86.7188H107.703V107H104.688V84.25ZM117.984 107L112.453 96.6875L115.594 96.6719L121.203 106.812V107H117.984Z" fill="black"/>
</g>
<path d="M11.8594 100.125L11.3785 99.9882L11.3751 100L11.3723 100.012L11.8594 100.125ZM16.375 84.25V83.75H15.9974L15.8941 84.1132L16.375 84.25ZM18.5625 84.25L19.0523 84.3504L19.1754 83.75H18.5625V84.25ZM17.2969 90.4219L17.7767 90.5625L17.7825 90.5426L17.7867 90.5223L17.2969 90.4219ZM12.4375 107V107.5H12.812L12.9173 107.141L12.4375 107ZM10.2656 107L9.77854 106.887L9.63646 107.5H10.2656V107ZM7.1875 84.25L7.67468 84.1375L7.5852 83.75H7.1875V84.25ZM10.7812 99.8125L11.2757 99.7383L11.2728 99.719L11.2684 99.7L10.7812 99.8125ZM11.8594 107V107.5H12.44L12.3538 106.926L11.8594 107ZM9.70312 107L9.2172 107.118L9.30986 107.5H9.70312V107ZM4.1875 84.25V83.75H3.55179L3.70158 84.3678L4.1875 84.25ZM24.4062 99.7969L23.9186 99.6866L23.9148 99.703L23.9122 99.7197L24.4062 99.7969ZM27.9219 84.25V83.75H27.5223L27.4342 84.1397L27.9219 84.25ZM30.9375 84.25L31.4235 84.3675L31.5728 83.75H30.9375V84.25ZM25.4375 107V107.5H25.831L25.9235 107.117L25.4375 107ZM23.2812 107L22.7872 106.923L22.6971 107.5H23.2812V107ZM18.8906 84.25L19.3725 84.1167L19.2711 83.75H18.8906V84.25ZM23.2812 100.125L23.7683 100.012L23.766 100.002L23.7632 99.9917L23.2812 100.125ZM24.875 107V107.5H25.5042L25.3621 106.887L24.875 107ZM22.7031 107L22.222 107.136L22.3249 107.5H22.7031V107ZM18.0156 90.4219L17.5261 90.5235L17.5297 90.5409L17.5345 90.5579L18.0156 90.4219ZM16.7344 84.25V83.75H16.1199L16.2448 84.3516L16.7344 84.25ZM11.8594 100.125L12.3403 100.262L16.8559 84.3868L16.375 84.25L15.8941 84.1132L11.3785 99.9882L11.8594 100.125ZM16.375 84.25V84.75H18.5625V84.25V83.75H16.375V84.25ZM18.5625 84.25L18.0727 84.1496L16.8071 90.3214L17.2969 90.4219L17.7867 90.5223L19.0523 84.3504L18.5625 84.25ZM17.2969 90.4219L16.8171 90.2812L11.9577 106.859L12.4375 107L12.9173 107.141L17.7767 90.5625L17.2969 90.4219ZM12.4375 107V106.5H10.2656V107V107.5H12.4375V107ZM10.2656 107L10.7527 107.113L12.3465 100.238L11.8594 100.125L11.3723 100.012L9.77854 106.887L10.2656 107ZM7.1875 84.25L6.70032 84.3625L10.2941 99.925L10.7812 99.8125L11.2684 99.7L7.67468 84.1375L7.1875 84.25ZM10.7812 99.8125L10.2868 99.8867L11.3649 107.074L11.8594 107L12.3538 106.926L11.2757 99.7383L10.7812 99.8125ZM11.8594 107V106.5H9.70312V107V107.5H11.8594V107ZM9.70312 107L10.189 106.882L4.67342 84.1322L4.1875 84.25L3.70158 84.3678L9.2172 107.118L9.70312 107ZM4.1875 84.25V84.75H7.1875V84.25V83.75H4.1875V84.25ZM24.4062 99.7969L24.8939 99.9072L28.4096 84.3603L27.9219 84.25L27.4342 84.1397L23.9186 99.6866L24.4062 99.7969ZM27.9219 84.25V84.75H30.9375V84.25V83.75H27.9219V84.25ZM30.9375 84.25L30.4515 84.1325L24.9515 106.883L25.4375 107L25.9235 107.117L31.4235 84.3675L30.9375 84.25ZM25.4375 107V106.5H23.2812V107V107.5H25.4375V107ZM23.2812 107L23.7753 107.077L24.9003 99.874L24.4062 99.7969L23.9122 99.7197L22.7872 106.923L23.2812 107ZM18.8906 84.25L18.4087 84.3833L22.7993 100.258L23.2812 100.125L23.7632 99.9917L19.3725 84.1167L18.8906 84.25ZM23.2812 100.125L22.7942 100.238L24.3879 107.113L24.875 107L25.3621 106.887L23.7683 100.012L23.2812 100.125ZM24.875 107V106.5H22.7031V107V107.5H24.875V107ZM22.7031 107L23.1843 106.864L18.4968 90.2858L18.0156 90.4219L17.5345 90.5579L22.222 107.136L22.7031 107ZM18.0156 90.4219L18.5052 90.3202L17.2239 84.1484L16.7344 84.25L16.2448 84.3516L17.5261 90.5235L18.0156 90.4219ZM16.7344 84.25V84.75H18.8906V84.25V83.75H16.7344V84.25ZM42.0156 86.2656L42.4856 86.4363L42.5136 86.3592L42.5155 86.2772L42.0156 86.2656ZM34.4844 107V107.5H34.8347L34.9543 107.171L34.4844 107ZM31.4062 107L30.939 106.822L30.6806 107.5H31.4062V107ZM40.0781 84.25V83.75H39.7336L39.6109 84.0719L40.0781 84.25ZM42.0625 84.25L42.5624 84.2616L42.5743 83.75H42.0625V84.25ZM48.3281 107L47.8583 107.171L47.978 107.5H48.3281V107ZM40.7812 86.2656L40.2814 86.2772L40.2833 86.3594L40.3114 86.4366L40.7812 86.2656ZM40.7344 84.25V83.75H40.2226L40.2345 84.2616L40.7344 84.25ZM42.7188 84.25L43.1857 84.0713L43.0628 83.75H42.7188V84.25ZM51.4219 107V107.5H52.1485L51.8889 106.821L51.4219 107ZM47.9375 98.5781H48.4375V98.0781H47.9375V98.5781ZM47.9375 101.047V101.547H48.4375V101.047H47.9375ZM35.1562 101.047H34.6562V101.547H35.1562V101.047ZM35.1562 98.5781V98.0781H34.6562V98.5781H35.1562ZM42.0156 86.2656L41.5457 86.0949L34.0144 106.829L34.4844 107L34.9543 107.171L42.4856 86.4363L42.0156 86.2656ZM34.4844 107V106.5H31.4062V107V107.5H34.4844V107ZM31.4062 107L31.8735 107.178L40.5453 84.4281L40.0781 84.25L39.6109 84.0719L30.939 106.822L31.4062 107ZM40.0781 84.25V84.75H42.0625V84.25V83.75H40.0781V84.25ZM42.0625 84.25L41.5626 84.2384L41.5158 86.254L42.0156 86.2656L42.5155 86.2772L42.5624 84.2616L42.0625 84.25ZM48.3281 107L48.798 106.829L41.2511 86.0946L40.7812 86.2656L40.3114 86.4366L47.8583 107.171L48.3281 107ZM40.7812 86.2656L41.2811 86.254L41.2342 84.2384L40.7344 84.25L40.2345 84.2616L40.2814 86.2772L40.7812 86.2656ZM40.7344 84.25V84.75H42.7188V84.25V83.75H40.7344V84.25ZM42.7188 84.25L42.2518 84.4287L50.9549 107.179L51.4219 107L51.8889 106.821L43.1857 84.0713L42.7188 84.25ZM51.4219 107V106.5H48.3281V107V107.5H51.4219V107ZM47.9375 98.5781H47.4375V101.047H47.9375H48.4375V98.5781H47.9375ZM47.9375 101.047V100.547H35.1562V101.047V101.547H47.9375V101.047ZM35.1562 101.047H35.6562V98.5781H35.1562H34.6562V101.047H35.1562ZM35.1562 98.5781V99.0781H47.9375V98.5781V98.0781H35.1562V98.5781ZM68.2656 104.547H68.7656V104.047H68.2656V104.547ZM68.2656 107V107.5H68.7656V107H68.2656ZM56.8906 107H56.3906V107.5H56.8906V107ZM56.8906 104.547V104.047H56.3906V104.547H56.8906ZM57.4844 84.25H57.9844V83.75H57.4844V84.25ZM57.4844 107V107.5H57.9844V107H57.4844ZM54.4688 107H53.9688V107.5H54.4688V107ZM54.4688 84.25V83.75H53.9688V84.25H54.4688ZM68.2656 104.547H67.7656V107H68.2656H68.7656V104.547H68.2656ZM68.2656 107V106.5H56.8906V107V107.5H68.2656V107ZM56.8906 107H57.3906V104.547H56.8906H56.3906V107H56.8906ZM56.8906 104.547V105.047H68.2656V104.547V104.047H56.8906V104.547ZM57.4844 84.25H56.9844V107H57.4844H57.9844V84.25H57.4844ZM57.4844 107V106.5H54.4688V107V107.5H57.4844V107ZM54.4688 107H54.9688V84.25H54.4688H53.9688V107H54.4688ZM54.4688 84.25V84.75H57.4844V84.25V83.75H54.4688V84.25ZM75.8125 84.25H76.3125V83.75H75.8125V84.25ZM75.8125 107V107.5H76.3125V107H75.8125ZM72.8438 107H72.3438V107.5H72.8438V107ZM72.8438 84.25V83.75H72.3438V84.25H72.8438ZM83.125 84.25H83.625V83.75H83.125V84.25ZM83.125 86.7188V87.2188H83.625V86.7188H83.125ZM65.5469 86.7188H65.0469V87.2188H65.5469V86.7188ZM65.5469 84.25V83.75H65.0469V84.25H65.5469ZM75.8125 84.25H75.3125V107H75.8125H76.3125V84.25H75.8125ZM75.8125 107V106.5H72.8438V107V107.5H75.8125V107ZM72.8438 107H73.3438V84.25H72.8438H72.3438V107H72.8438ZM72.8438 84.25V84.75H75.8125V84.25V83.75H72.8438V84.25ZM83.125 84.25H82.625V86.7188H83.125H83.625V84.25H83.125ZM83.125 86.7188V86.2188H65.5469V86.7188V87.2188H83.125V86.7188ZM65.5469 86.7188H66.0469V84.25H65.5469H65.0469V86.7188H65.5469ZM65.5469 84.25V84.75H83.125V84.25V83.75H65.5469V84.25ZM100.953 104.547H101.453V104.047H100.953V104.547ZM100.953 107V107.5H101.453V107H100.953ZM88.9062 107H88.4062V107.5H88.9062V107ZM88.9062 104.547V104.047H88.4062V104.547H88.9062ZM89.5156 84.25H90.0156V83.75H89.5156V84.25ZM89.5156 107V107.5H90.0156V107H89.5156ZM86.5 107H86V107.5H86.5V107ZM86.5 84.25V83.75H86V84.25H86.5ZM99.3594 94.0312H99.8594V93.5312H99.3594V94.0312ZM99.3594 96.4844V96.9844H99.8594V96.4844H99.3594ZM88.9062 96.4844H88.4062V96.9844H88.9062V96.4844ZM88.9062 94.0312V93.5312H88.4062V94.0312H88.9062ZM100.797 84.25H101.297V83.75H100.797V84.25ZM100.797 86.7188V87.2188H101.297V86.7188H100.797ZM88.9062 86.7188H88.4062V87.2188H88.9062V86.7188ZM88.9062 84.25V83.75H88.4062V84.25H88.9062ZM100.953 104.547H100.453V107H100.953H101.453V104.547H100.953ZM100.953 107V106.5H88.9062V107V107.5H100.953V107ZM88.9062 107H89.4062V104.547H88.9062H88.4062V107H88.9062ZM88.9062 104.547V105.047H100.953V104.547V104.047H88.9062V104.547ZM89.5156 84.25H89.0156V107H89.5156H90.0156V84.25H89.5156ZM89.5156 107V106.5H86.5V107V107.5H89.5156V107ZM86.5 107H87V84.25H86.5H86V107H86.5ZM86.5 84.25V84.75H89.5156V84.25V83.75H86.5V84.25ZM99.3594 94.0312H98.8594V96.4844H99.3594H99.8594V94.0312H99.3594ZM99.3594 96.4844V95.9844H88.9062V96.4844V96.9844H99.3594V96.4844ZM88.9062 96.4844H89.4062V94.0312H88.9062H88.4062V96.4844H88.9062ZM88.9062 94.0312V94.5312H99.3594V94.0312V93.5312H88.9062V94.0312ZM100.797 84.25H100.297V86.7188H100.797H101.297V84.25H100.797ZM100.797 86.7188V86.2188H88.9062V86.7188V87.2188H100.797V86.7188ZM88.9062 86.7188H89.4062V84.25H88.9062H88.4062V86.7188H88.9062ZM88.9062 84.25V84.75H100.797V84.25V83.75H88.9062V84.25ZM104.688 84.25V83.75H104.188V84.25H104.688ZM116.547 85.0312L116.345 85.4885L116.346 85.4891L116.547 85.0312ZM119.25 87.3438L118.822 87.6017L118.825 87.6068L119.25 87.3438ZM119.547 93.9375L119.099 93.7161L119.097 93.7183L119.547 93.9375ZM117.734 96.125L118.037 96.5231L118.038 96.5225L117.734 96.125ZM114.922 97.4531L114.793 96.97L114.766 96.9771L114.741 96.9871L114.922 97.4531ZM114.078 97.7812V98.2812H114.172L114.259 98.2473L114.078 97.7812ZM107 97.7812L106.5 97.7876L106.506 98.2812H107V97.7812ZM106.969 95.3281V94.8281H106.462L106.469 95.3345L106.969 95.3281ZM115.016 94.7656L115.247 95.2089L115.252 95.2063L115.016 94.7656ZM115.047 87.2656L114.823 87.7129L114.831 87.7166L115.047 87.2656ZM107.703 86.7188V86.2188H107.203V86.7188H107.703ZM107.703 107V107.5H108.203V107H107.703ZM104.688 107H104.188V107.5H104.688V107ZM117.984 107L117.544 107.236L117.685 107.5H117.984V107ZM112.453 96.6875L112.451 96.1875L111.62 96.1916L112.013 96.9238L112.453 96.6875ZM115.594 96.6719L116.031 96.4299L115.888 96.1704L115.591 96.1719L115.594 96.6719ZM121.203 106.812H121.703V106.683L121.641 106.57L121.203 106.812ZM121.203 107V107.5H121.703V107H121.203ZM104.688 84.25V84.75H112.219V84.25V83.75H104.688V84.25ZM112.219 84.25V84.75C113.879 84.75 115.248 85.0035 116.345 85.4885L116.547 85.0312L116.749 84.574C115.491 84.0174 113.975 83.75 112.219 83.75V84.25ZM116.547 85.0312L116.346 85.4891C117.448 85.9723 118.265 86.6773 118.822 87.6016L119.25 87.3438L119.678 87.0859C119.006 85.9686 118.021 85.1319 116.748 84.5734L116.547 85.0312ZM119.25 87.3438L118.825 87.6068C119.39 88.5209 119.688 89.6692 119.688 91.0781H120.188H120.688C120.688 89.5287 120.36 88.1874 119.675 87.0807L119.25 87.3438ZM120.188 91.0781H119.688C119.688 92.0493 119.489 92.9258 119.099 93.7161L119.547 93.9375L119.995 94.1589C120.459 93.2201 120.688 92.1903 120.688 91.0781H120.188ZM119.547 93.9375L119.097 93.7183C118.717 94.4991 118.164 95.1683 117.431 95.7275L117.734 96.125L118.038 96.5225C118.888 95.8734 119.544 95.0842 119.996 94.1567L119.547 93.9375ZM117.734 96.125L117.432 95.7269C116.71 96.2757 115.833 96.6926 114.793 96.97L114.922 97.4531L115.051 97.9362C116.198 97.6304 117.197 97.1618 118.037 96.5231L117.734 96.125ZM114.922 97.4531L114.741 96.9871L113.897 97.3152L114.078 97.7812L114.259 98.2473L115.103 97.9191L114.922 97.4531ZM114.078 97.7812V97.2812H107V97.7812V98.2812H114.078V97.7812ZM107 97.7812L107.5 97.7749L107.469 95.3218L106.969 95.3281L106.469 95.3345L106.5 97.7876L107 97.7812ZM106.969 95.3281V95.8281H112.312V95.3281V94.8281H106.969V95.3281ZM112.312 95.3281V95.8281C113.45 95.8281 114.437 95.6316 115.247 95.2089L115.016 94.7656L114.784 94.3223C114.157 94.6497 113.341 94.8281 112.312 94.8281V95.3281ZM115.016 94.7656L115.252 95.2063C116.046 94.7807 116.66 94.201 117.076 93.4645L116.641 93.2188L116.205 92.973C115.892 93.5282 115.423 93.9797 114.779 94.325L115.016 94.7656ZM116.641 93.2188L117.076 93.4645C117.485 92.7397 117.688 91.9407 117.688 91.0781H117.188H116.688C116.688 91.778 116.525 92.4062 116.205 92.973L116.641 93.2188ZM117.188 91.0781H117.688C117.688 90.1369 117.502 89.289 117.115 88.5492L116.672 88.7812L116.229 89.0133C116.529 89.586 116.688 90.2693 116.688 91.0781H117.188ZM116.672 88.7812L117.115 88.5492C116.716 87.7872 116.089 87.2102 115.263 86.8147L115.047 87.2656L114.831 87.7166C115.484 88.0294 115.941 88.4628 116.229 89.0133L116.672 88.7812ZM115.047 87.2656L115.27 86.8184C114.449 86.4077 113.422 86.2188 112.219 86.2188V86.7188V87.2188C113.328 87.2188 114.186 87.3944 114.823 87.7128L115.047 87.2656ZM112.219 86.7188V86.2188H107.703V86.7188V87.2188H112.219V86.7188ZM107.703 86.7188H107.203V107H107.703H108.203V86.7188H107.703ZM107.703 107V106.5H104.688V107V107.5H107.703V107ZM104.688 107H105.188V84.25H104.688H104.188V107H104.688ZM117.984 107L118.425 106.764L112.894 96.4512L112.453 96.6875L112.013 96.9238L117.544 107.236L117.984 107ZM112.453 96.6875L112.456 97.1875L115.596 97.1719L115.594 96.6719L115.591 96.1719L112.451 96.1875L112.453 96.6875ZM115.594 96.6719L115.156 96.9139L120.766 107.055L121.203 106.812L121.641 106.57L116.031 96.4299L115.594 96.6719ZM121.203 106.812H120.703V107H121.203H121.703V106.812H121.203ZM121.203 107V106.5H117.984V107V107.5H121.203V107Z" fill="black"/>
<rect x="47.3" y="28.675" width="11.7" height="38.85" fill="#4682B4"/>
<rect x="95.9" y="21.275" width="11.7" height="32.375" fill="#4682B4"/>
<rect x="23" y="13.875" width="11.7" height="39.775" fill="#187660"/>
<rect x="71.6" y="9.25" width="11.7" height="37" fill="#187660"/>
<line x1="28.9" y1="53.65" x2="28.9" y2="61.05" stroke="black"/>
<line x1="28.9" y1="53.65" x2="28.9" y2="62.9" stroke="black"/>
<line x1="53.2" y1="67.525" x2="53.2" y2="76.775" stroke="black"/>
<line x1="53.2" y1="19.425" x2="53.2" y2="28.675" stroke="black"/>
<line x1="77.5" x2="77.5" y2="9.25" stroke="black"/>
<line x1="77.5" y1="46.25" x2="77.5" y2="55.5" stroke="black"/>
<line x1="101.8" y1="53.65" x2="101.8" y2="62.9" stroke="black"/>
<line x1="101.8" y1="12.025" x2="101.8" y2="21.275" stroke="black"/>
<line x1="28.9" y1="4.625" x2="28.9" y2="13.875" stroke="black"/>
<line x1="28.9" y1="53.65" x2="28.9" y2="62.9" stroke="black"/>
<defs>
<filter id="filter0_i_95_198" x="3.55176" y="83.75" width="118.151" height="27.75" filterUnits="userSpaceOnUse" color-interpolation-filters="sRGB">
<feFlood flood-opacity="0" result="BackgroundImageFix"/>
<feBlend mode="normal" in="SourceGraphic" in2="BackgroundImageFix" result="shape"/>
<feColorMatrix in="SourceAlpha" type="matrix" values="0 0 0 0 0 0 0 0 0 0 0 0 0 0 0 0 0 0 127 0" result="hardAlpha"/>
<feOffset dy="4"/>
<feGaussianBlur stdDeviation="2"/>
<feComposite in2="hardAlpha" operator="arithmetic" k2="-1" k3="1"/>
<feColorMatrix type="matrix" values="0 0 0 0 0 0 0 0 0 0 0 0 0 0 0 0 0 0 0.25 0"/>
<feBlend mode="normal" in2="shape" result="effect1_innerShadow_95_198"/>
</filter>
</defs>
</svg>
